<svg width="429" height="93" viewBox="0 0 429 93" fill="none" xmlns="http://www.w3.org/2000/svg">
<g clip-path="url(#clip0_3557_1846)">
<path d="M68.9739 47.5953C68.7629 47.0751 68.5323 46.5603 68.2928 46.0514C72.9334 37.6969 73.761 31.6519 70.656 28.5463C67.5516 25.4419 61.5072 26.2683 53.1532 30.9083C52.6432 30.6687 52.1283 30.4399 51.6064 30.2284C49.7241 29.4651 47.7565 28.8823 45.7592 28.4956C41.8003 27.7294 37.6686 27.73 33.7121 28.4956C31.7142 28.8823 29.7473 29.4651 27.865 30.229C25.9469 31.0066 24.1003 31.979 22.3747 33.1177C20.605 34.2862 18.9402 35.6459 17.4267 37.1588C15.915 38.6717 14.5553 40.336 13.3862 42.1062C12.2463 43.833 11.2745 45.6802 10.4975 47.5959C9.73477 49.477 9.15142 51.444 8.76411 53.4431C8.38097 55.4219 8.18672 57.449 8.18672 59.4666C8.18672 61.4842 8.38097 63.5113 8.76411 65.4901C9.15142 67.4892 9.73477 69.4562 10.4975 71.3373C10.709 71.8587 10.9372 72.3735 11.1773 72.8836C6.53738 81.2363 5.70974 87.2807 8.81536 90.3863C10.0512 91.6221 11.7512 92.2371 13.8766 92.2371C17.3004 92.2365 21.8295 90.6413 27.2983 87.4761C27.3019 87.4744 27.3049 87.472 27.3084 87.4702C27.3186 87.4642 27.3287 87.4583 27.3382 87.4523C34.3652 83.3796 42.3473 77.0248 49.8206 69.5509C56.1051 63.267 61.5936 56.6244 65.6049 50.49C66.0274 51.7109 66.3664 52.9652 66.6119 54.2338C66.9444 55.9534 67.113 57.7136 67.113 59.4654C67.113 61.2172 66.9444 62.978 66.6119 64.6965C66.2764 66.4304 65.7705 68.1369 65.1091 69.7684C64.4358 71.4285 63.5933 73.0301 62.6047 74.5275C61.5912 76.0631 60.4096 77.5086 59.0939 78.8243C57.7819 80.1375 56.3363 81.3185 54.7978 82.3339C53.3016 83.3224 51.7011 84.1644 50.0393 84.8383C48.4072 85.4997 46.7001 86.0062 44.9667 86.341C43.0963 86.7027 41.1842 86.8648 39.2703 86.8392C38.1328 86.7957 37.1693 87.7365 37.149 88.8877C37.1288 90.0395 38.0458 90.9887 39.1976 91.009C39.3764 91.0126 39.5557 91.0138 39.7345 91.0138C41.7527 91.0138 43.7792 90.8195 45.758 90.4364C47.7565 90.0497 49.7235 89.4663 51.6052 88.7036C53.5221 87.926 55.3692 86.9542 57.0954 85.8143C58.8681 84.644 60.5323 83.2843 62.0428 81.7732C63.5563 80.2597 64.9161 78.5955 66.0846 76.8252C67.225 75.0978 68.1969 73.2506 68.9733 71.3355C69.736 69.455 70.3193 67.488 70.7066 65.4883C71.0898 63.5089 71.2834 61.4818 71.2834 59.4654C71.2834 57.449 71.0898 55.4219 70.7066 53.4419C70.3199 51.444 69.7366 49.477 68.9739 47.5953ZM11.7649 87.438C10.6393 86.3124 10.9021 82.7718 13.6335 77.1827C14.7459 78.8177 16.0157 80.364 17.4273 81.775C18.8359 83.1836 20.3816 84.4539 22.0202 85.5688C16.4304 88.3002 12.891 88.5636 11.7649 87.438ZM46.8717 66.6026C39.9895 73.4848 32.698 79.3611 26.2121 83.2712C25.6895 82.9738 25.1729 82.6652 24.6735 82.3351C23.1356 81.3197 21.6901 80.1381 20.3774 78.8255C19.0617 77.5098 17.8813 76.0637 16.8672 74.5293C15.8787 73.0307 15.0361 71.4297 14.3628 69.7696C13.7014 68.1387 13.1955 66.4316 12.86 64.6976C12.527 62.9792 12.3583 61.219 12.3583 59.4666C12.3583 57.7142 12.527 55.9534 12.86 54.2356C13.1955 52.5016 13.7014 50.7951 14.3628 49.1636C15.0367 47.5023 15.8793 45.9013 16.8672 44.4045C17.8813 42.8678 19.0629 41.4222 20.3768 40.1083C21.6919 38.7939 23.1374 37.6129 24.6735 36.5987C26.1692 35.6114 27.7702 34.7682 29.4327 34.0943C31.0653 33.4323 32.7719 32.9264 34.5052 32.591C37.9421 31.926 41.5304 31.9254 44.9673 32.591C46.7001 32.9264 48.4066 33.4317 50.0399 34.0937C51.7029 34.7682 53.304 35.6108 54.799 36.5987C55.9538 37.3608 57.0639 38.2224 58.0971 39.1579C58.9509 39.9308 60.2696 39.8658 61.0424 39.0125C61.8158 38.1587 61.7503 36.84 60.897 36.0666C59.8149 35.0858 58.6566 34.1807 57.4541 33.3632C63.0427 30.6324 66.5809 30.3702 67.7071 31.4952C69.0341 32.8222 68.4442 37.4943 64.1361 44.9396C60.2404 51.6716 54.1096 59.3647 46.8717 66.6026Z" fill="black"/>
<path d="M114.601 44.6271L105.185 76.4524H99.6242L88.2266 37.4691H93.7327L102.322 68.6337H102.432L111.628 37.4691H117.684L126.879 68.6337H126.99L135.579 37.4691H141.085L129.743 76.4524H124.181L114.711 44.6271H114.601ZM154.245 49.6927C158.246 49.6927 161.357 50.9498 163.578 53.4644C165.798 55.9789 166.927 59.4385 166.964 63.8434V65.2199H146.041C146.041 67.349 146.894 69.1383 148.601 70.5884C150.308 72.0384 152.391 72.7816 154.851 72.8184C157.567 72.8184 159.953 71.5152 162.008 68.909L165.753 71.7722C162.963 75.3327 159.108 77.1131 154.19 77.1131C150.189 77.1131 146.967 75.8375 144.527 73.2864C142.086 70.7352 140.828 67.4405 140.755 63.4029C140.755 59.512 142.012 56.2725 144.527 53.6846C147.041 51.0967 150.28 49.7662 154.245 49.6927ZM161.678 61.2555C161.605 58.7961 160.907 56.9148 159.586 55.6118C158.264 54.3087 156.447 53.6571 154.135 53.6571C152.593 53.6571 151.207 54.0333 149.978 54.7858C148.748 55.5384 147.784 56.5111 147.087 57.7041C146.389 58.897 146.041 60.0809 146.041 61.2555H161.678ZM177.866 34.8262L177.866 54.0976H177.976C178.857 52.7394 180.133 51.6657 181.803 50.8765C183.473 50.0873 185.226 49.6927 187.061 49.6927C190.989 49.6927 194.182 50.9866 196.642 53.5745C199.102 56.1624 200.331 59.4385 200.331 63.4029C200.331 67.3307 199.129 70.579 196.725 73.1487C194.32 75.7184 191.118 77.0396 187.116 77.1131C185.318 77.1131 183.583 76.7277 181.913 75.9568C180.243 75.186 178.931 74.1031 177.976 72.7082H177.866V76.4524H172.911V34.8262H177.866ZM177.866 63.4029C177.866 66.1192 178.646 68.2943 180.206 69.9276C181.766 71.561 183.849 72.4146 186.456 72.488C189.062 72.488 191.145 71.6437 192.705 69.9552C194.265 68.2666 195.045 66.0825 195.045 63.4029C195.045 60.7234 194.274 58.5484 192.733 56.8782C191.191 55.2079 189.08 54.3545 186.401 54.3178C183.794 54.3178 181.72 55.1713 180.179 56.8782C178.637 58.5851 177.866 60.76 177.866 63.4029ZM232.322 49.6927C235.625 49.6927 238.241 50.445 240.168 51.95C242.095 53.455 243.114 55.5474 243.224 58.227V72.2125C243.224 73.534 243.297 74.9472 243.444 76.4522H239.039C238.929 75.2776 238.874 73.9561 238.874 72.4878H238.764C237.626 74.1764 236.313 75.3694 234.827 76.0668C233.34 76.7641 231.606 77.113 229.624 77.113C226.944 77.113 224.769 76.3972 223.099 74.9656C221.429 73.534 220.594 71.6435 220.594 69.2943C220.594 66.321 221.842 64.0726 224.338 62.5493C226.834 61.026 230.358 60.2643 234.909 60.2643H238.599V59.3282C238.599 57.5663 238.02 56.1806 236.864 55.1711C235.708 54.1616 234.194 53.6569 232.322 53.6569C230.927 53.6569 229.706 53.868 228.66 54.2901C227.614 54.7123 226.375 55.4923 224.943 56.6303L221.97 53.5468C224.797 51.0508 228.247 49.7662 232.322 49.6927ZM225.549 68.909C225.549 71.7356 227.421 73.1487 231.165 73.1487C233.404 73.1487 235.194 72.4788 236.534 71.139C237.874 69.7992 238.562 67.8629 238.599 65.33V63.8985H235.79C232.56 63.8985 230.046 64.3114 228.247 65.1373C226.448 65.9632 225.549 67.2205 225.549 68.909ZM264.092 49.6927C267.029 49.6927 269.332 50.5737 271.002 52.3356C272.672 54.0976 273.526 56.4652 273.562 59.4385V76.4524H268.607V60.8701C268.607 58.8512 268.084 57.2545 267.038 56.0798C265.991 54.905 264.532 54.3178 262.66 54.3178C260.348 54.3178 258.558 55.0887 257.292 56.6304C256.025 58.1721 255.392 60.2278 255.392 62.7972V76.4524H250.437V50.3534H255.392V54.3729H255.502C256.2 52.9046 257.329 51.7575 258.889 50.9316C260.449 50.1056 262.183 49.6927 264.092 49.6927ZM291.512 49.6927C294.816 49.6927 297.431 50.445 299.359 51.95C301.286 53.455 302.304 55.5474 302.414 58.227V72.2125C302.414 73.534 302.488 74.9472 302.635 76.4522H298.23C298.12 75.2776 298.065 73.9561 298.065 72.4878H297.954C296.816 74.1764 295.504 75.3694 294.018 76.0668C292.531 76.7641 290.796 77.113 288.814 77.113C286.135 77.113 283.96 76.3972 282.29 74.9656C280.619 73.534 279.784 71.6435 279.784 69.2943C279.784 66.321 281.032 64.0726 283.528 62.5493C286.025 61.026 289.548 60.2643 294.1 60.2643H297.789V59.3282C297.789 57.5663 297.211 56.1806 296.055 55.1711C294.899 54.1616 293.384 53.6569 291.512 53.6569C290.117 53.6569 288.897 53.868 287.851 54.2901C286.805 54.7123 285.566 55.4923 284.134 56.6303L281.161 53.5468C283.987 51.0508 287.438 49.7662 291.512 49.6927ZM284.74 68.909C284.74 71.7356 286.612 73.1487 290.356 73.1487C292.595 73.1487 294.385 72.4788 295.724 71.139C297.064 69.7992 297.753 67.8629 297.789 65.33V63.8985H294.981C291.751 63.8985 289.237 64.3114 287.438 65.1373C285.639 65.9632 284.74 67.2205 284.74 68.909ZM314.968 34.8262V76.4524H310.013V34.8262H314.968ZM325.43 50.3534L333.194 70.726H333.304L340.682 50.3534H346.023L333.689 81.9585C332.551 85.0053 331.303 87.0517 329.945 88.0978C328.587 89.144 326.843 89.6671 324.714 89.6671C322.915 89.6671 321.447 89.4285 320.309 88.9513L320.915 84.4913C321.943 84.8584 322.934 85.0419 323.888 85.0419C325.43 85.0419 326.54 84.6657 327.219 83.9132C327.899 83.1607 328.495 82.087 329.009 80.6921L330.551 76.6176L319.704 50.3534H325.43ZM357.255 43.0303L357.255 50.3534H364.358V54.6482H357.255V67.2021C357.255 68.8907 357.494 70.1939 357.971 71.1115C358.448 72.0291 359.458 72.488 360.999 72.488C362.468 72.488 363.642 72.231 364.523 71.7171V76.2321C363.569 76.746 362.064 77.0397 360.008 77.1131C358.026 77.1131 356.493 76.8102 355.411 76.2046C354.328 75.5989 353.539 74.7546 353.043 73.6718C352.548 72.5889 352.3 70.8912 352.3 68.5786V54.6481H346.573V50.3534H352.3V43.0302L357.255 43.0303ZM373.664 37.359C374.655 37.359 375.508 37.7169 376.224 38.4327C376.94 39.1485 377.298 40.002 377.298 40.9931C377.298 42.0209 376.931 42.8835 376.196 43.581C375.462 44.2785 374.618 44.6272 373.664 44.6272C372.636 44.6272 371.773 44.2785 371.076 43.581C370.378 42.8835 370.03 42.0209 370.03 40.9931C370.03 39.9652 370.397 39.1026 371.131 38.4051C371.865 37.7077 372.709 37.359 373.664 37.359ZM376.141 50.3534V76.4524H371.186V50.3534H376.141ZM396.404 49.7477C400.552 49.7477 403.892 51.1243 406.425 53.8773L402.681 57.2911C400.882 55.3456 398.716 54.3729 396.184 54.3729C393.761 54.3729 391.797 55.2355 390.292 56.9608C388.787 58.686 388.034 60.9067 388.034 63.6231C388.034 66.1927 388.824 68.3033 390.402 69.9552C391.981 71.607 394 72.4513 396.459 72.488C399.065 72.488 401.176 71.5152 402.791 69.5698L406.315 73.0937C403.965 75.7733 400.662 77.1131 396.404 77.1131C392.403 77.1131 389.145 75.8651 386.63 73.369C384.116 70.8729 382.822 67.5876 382.749 63.513C382.785 59.365 384.079 56.0429 386.63 53.547C389.182 51.051 392.439 49.7844 396.404 49.7477ZM419.364 49.6927C421.346 49.6927 423.118 50.0599 424.678 50.794C426.238 51.5281 427.44 52.5926 428.284 53.9876L424.43 56.9058C422.962 55.1806 421.181 54.3179 419.089 54.3179C417.841 54.3179 416.804 54.5932 415.978 55.1438C415.152 55.6945 414.739 56.3919 414.739 57.2362C414.739 59.0715 416.446 60.3196 419.86 60.9803C423.2 61.6043 425.559 62.522 426.935 63.7334C428.312 64.9447 429 66.6701 429 68.9091C429 71.4419 428.036 73.4332 426.109 74.8833C424.182 76.3333 421.603 77.0765 418.373 77.1132C415.95 77.1132 413.959 76.737 412.399 75.9845C410.839 75.232 409.49 74.0665 408.352 72.4881L412.096 69.4047C414.078 71.4603 416.189 72.4881 418.428 72.4881C419.897 72.4881 421.145 72.1945 422.172 71.6071C423.2 71.0198 423.714 70.2122 423.714 69.1844C423.714 67.3857 422.062 66.1376 418.759 65.4402C415.088 64.7061 412.619 63.7242 411.353 62.4945C410.086 61.2647 409.453 59.6772 409.453 57.7317C409.453 55.309 410.389 53.3727 412.261 51.9227C414.133 50.4727 416.501 49.7294 419.364 49.6927Z" fill="black"/>
</g>
<defs>
<clipPath id="clip0_3557_1846">
<rect width="429" height="92.237" fill="white"/>
</clipPath>
</defs>
</svg>
